<svg width="600" height="400" viewBox="0 0 600 400" fill="none" xmlns="http://www.w3.org/2000/svg">
  <rect width="600" height="400" rx="32" fill="#0F172A"/>
  <path d="M300 90C230 120 170 130 170 130V210C170 280 230 330 300 350C370 330 430 280 430 210V130C430 130 370 120 300 90Z" fill="#38BDF8"/>
  <path d="M300 140C265 155 230 160 230 160V210C230 255 265 290 300 300C335 290 370 255 370 210V160C370 160 335 155 300 140Z" fill="#1E40AF"/>
  <circle cx="300" cy="220" r="20" fill="#F8FAFC"/>
</svg>
