<svg width="1440" height="760" viewBox="0 0 1440 760" fill="none" xmlns="http://www.w3.org/2000/svg">
  <defs>
    <linearGradient id="bg" x1="0" y1="0" x2="0" y2="1">
      <stop offset="0%" stop-color="#192A56" />
      <stop offset="100%" stop-color="#1F3C88" />
    </linearGradient>
    <linearGradient id="glow" x1="0" y1="0" x2="1" y2="1">
      <stop offset="0%" stop-color="#F5A524" stop-opacity="0.9" />
      <stop offset="100%" stop-color="#F8D477" stop-opacity="0.4" />
    </linearGradient>
    <linearGradient id="tower" x1="0" y1="0" x2="0" y2="1">
      <stop offset="0%" stop-color="#E3E7FF" stop-opacity="0.8" />
      <stop offset="100%" stop-color="#98A9D8" stop-opacity="0.9" />
    </linearGradient>
    <linearGradient id="tower2" x1="0" y1="0" x2="0" y2="1">
      <stop offset="0%" stop-color="#8FD3FF" stop-opacity="0.8" />
      <stop offset="100%" stop-color="#3EB3FF" stop-opacity="0.9" />
    </linearGradient>
    <linearGradient id="tower3" x1="0" y1="0" x2="0" y2="1">
      <stop offset="0%" stop-color="#9CF7C1" stop-opacity="0.9" />
      <stop offset="100%" stop-color="#3BB273" stop-opacity="0.9" />
    </linearGradient>
    <filter id="blur" x="-50%" y="-50%" width="200%" height="200%">
      <feGaussianBlur stdDeviation="120" />
    </filter>
  </defs>
  <rect width="1440" height="760" fill="url(#bg)" />
  <ellipse cx="720" cy="620" rx="520" ry="220" fill="#0F172A" opacity="0.35" />
  <circle cx="360" cy="180" r="140" fill="url(#glow)" opacity="0.7" />
  <circle cx="1160" cy="160" r="110" fill="url(#glow)" opacity="0.55" />
  <g filter="url(#blur)">
    <rect x="160" y="260" width="120" height="360" fill="#F5A524" opacity="0.3" />
    <rect x="340" y="220" width="80" height="340" fill="#FFFFFF" opacity="0.3" />
    <rect x="980" y="260" width="90" height="330" fill="#50C4F5" opacity="0.3" />
  </g>
  <g>
    <rect x="160" y="340" width="120" height="300" rx="10" fill="url(#tower)" />
    <rect x="320" y="280" width="90" height="360" rx="10" fill="url(#tower2)" />
    <rect x="460" y="320" width="110" height="320" rx="10" fill="url(#tower3)" />
    <rect x="620" y="250" width="130" height="390" rx="16" fill="url(#tower)" />
    <rect x="790" y="300" width="100" height="340" rx="12" fill="url(#tower2)" />
    <rect x="930" y="330" width="120" height="310" rx="14" fill="url(#tower3)" />
    <rect x="1090" y="270" width="110" height="370" rx="12" fill="url(#tower)" />
  </g>
  <g stroke="#E3E7FF" stroke-width="3" stroke-linecap="round" opacity="0.3">
    <path d="M120 520 C320 420 520 600 720 520 C920 440 1120 540 1320 460" />
    <path d="M120 560 C320 460 520 640 720 560 C920 480 1120 580 1320 500" />
  </g>
  <g fill="#FFFFFF" opacity="0.4">
    <circle cx="220" cy="140" r="4" />
    <circle cx="640" cy="90" r="3" />
    <circle cx="940" cy="120" r="5" />
    <circle cx="1280" cy="200" r="4" />
    <circle cx="1080" cy="80" r="3" />
  </g>
</svg>
